<?xml version="1.0" encoding="UTF-8" standalone="no"?>
<!-- Created with Inkscape (http://www.inkscape.org/) -->

<svg
   xmlns:dc="http://purl.org/dc/elements/1.1/"
   xmlns:cc="http://creativecommons.org/ns#"
   xmlns:rdf="http://www.w3.org/1999/02/22-rdf-syntax-ns#"
   xmlns:svg="http://www.w3.org/2000/svg"
   xmlns="http://www.w3.org/2000/svg"
   xmlns:sodipodi="http://sodipodi.sourceforge.net/DTD/sodipodi-0.dtd"
   xmlns:inkscape="http://www.inkscape.org/namespaces/inkscape"
   width="179.74779"
   height="30.497499"
   viewBox="0 0 179.74778 30.497499"
   id="svg25394"
   version="1.1"
   inkscape:version="0.91 r13725"
   sodipodi:docname="cympress.svg">
  <defs
     id="defs25396">
    <clipPath
       id="clipPath24801"
       clipPathUnits="userSpaceOnUse">
      <path
         inkscape:connector-curvature="0"
         id="path24803"
         d="m 418.505,37.411 146.595,0 0,23.999 -146.595,0 0,-23.999" />
    </clipPath>
  </defs>
  <sodipodi:namedview
     id="base"
     pagecolor="#ffffff"
     bordercolor="#666666"
     borderopacity="1.0"
     inkscape:pageopacity="0.0"
     inkscape:pageshadow="2"
     inkscape:zoom="4.9388031"
     inkscape:cx="91.621389"
     inkscape:cy="14.99875"
     inkscape:document-units="px"
     inkscape:current-layer="layer1"
     showgrid="false"
     inkscape:window-width="1280"
     inkscape:window-height="744"
     inkscape:window-x="-4"
     inkscape:window-y="-4"
     inkscape:window-maximized="1"
     fit-margin-top="0"
     fit-margin-left="0"
     fit-margin-right="0"
     fit-margin-bottom="0"
     units="px" />
  <metadata
     id="metadata25399">
    <rdf:RDF>
      <cc:Work
         rdf:about="">
        <dc:format>image/svg+xml</dc:format>
        <dc:type
           rdf:resource="http://purl.org/dc/dcmitype/StillImage" />
        <dc:title></dc:title>
      </cc:Work>
    </rdf:RDF>
  </metadata>
  <g
     inkscape:label="Layer 1"
     inkscape:groupmode="layer"
     id="layer1"
     transform="translate(-316.95004,-625.43488)">
    <g
       transform="matrix(1.25,0,0,-1.25,331.87031,639.42113)"
       id="g24793">
      <path
         inkscape:connector-curvature="0"
         id="path24795"
         style="fill:#f1654a;fill-opacity:1;fill-rule:nonzero;stroke:none"
         d="m 0,0 c 0,0 -1.004,-1.004 0,-2.008 l 2.743,-2.743 c 0,0 1.004,-1.004 2.008,0 l 2.74,2.741 c 0,0 1.004,1.004 0,2.008 L 4.749,2.74 c 0,0 -1.004,1.005 -2.008,0" />
    </g>
    <g
       id="g24797"
       transform="matrix(1.25,0,0,-1.25,-205.93218,702.44738)">
      <g
         clip-path="url(#clipPath24801)"
         id="g24799">
        <g
           transform="translate(429.18,45.193)"
           id="g24805">
          <path
             inkscape:connector-curvature="0"
             id="path24807"
             style="fill:#424b53;fill-opacity:1;fill-rule:nonzero;stroke:none"
             d="m 0,0 -4.233,4.233 4.211,4.212 c 0,0 1.004,1.004 0,2.008 l -1.491,1.491 c 0,0 -1.004,1.004 -2.008,0 l -6.707,-6.707 c 0,0 -1.004,-1.004 0,-2.008 L -8.737,1.737 -8.729,1.73 -3.5,-3.499 c 0,0 1.004,-1.005 2.008,0 L 0,-2.008 c 0,0 1.004,1.004 0,2.008" />
        </g>
        <g
           transform="translate(449.041,50.419)"
           id="g24809">
          <path
             inkscape:connector-curvature="0"
             id="path24811"
             style="fill:#424b53;fill-opacity:1;fill-rule:nonzero;stroke:none"
             d="m 0,0 -10.546,10.546 c 0,0 -1.004,1.004 -2.008,0 l -1.492,-1.492 c 0,0 -1.004,-1.003 0,-2.008 l 8.05,-8.05 -8.042,-8.043 c 0,0 -1.004,-1.004 0,-2.008 l 1.491,-1.491 c 0,0 1.004,-1.004 2.008,0 L 0,-2.008 c 0,0 1.004,1.004 0,2.008" />
        </g>
      </g>
    </g>
    <g
       transform="matrix(1.25,0,0,-1.25,360.37656,640.73863)"
       id="g24813">
      <path
         inkscape:connector-curvature="0"
         id="path24815"
         style="fill:#424b53;fill-opacity:1;fill-rule:nonzero;stroke:none"
         d="m 0,0 0,0.056 c 0,4.304 3.292,7.849 7.905,7.849 2.363,0 3.994,-0.675 5.288,-1.8 0.254,-0.225 0.366,-0.479 0.366,-0.732 0,-0.253 -0.112,-0.506 -0.337,-0.759 L 12.04,3.348 C 11.787,3.095 11.534,2.954 11.281,2.954 c -0.225,0 -0.479,0.113 -0.76,0.337 C 9.79,3.882 9.002,4.22 7.877,4.22 5.739,4.22 4.22,2.335 4.22,0.113 l 0,-0.057 c 0,-2.306 1.491,-4.163 3.826,-4.163 1.069,0 1.884,0.338 2.672,0.928 0.253,0.197 0.506,0.31 0.76,0.31 0.253,0 0.506,-0.113 0.759,-0.366 l 1.041,-1.041 c 0.281,-0.281 0.394,-0.562 0.394,-0.815 0,-0.169 -0.057,-0.366 -0.225,-0.535 C 12.097,-6.92 10.493,-7.792 7.849,-7.792 3.319,-7.792 0,-4.304 0,0" />
    </g>
    <g
       transform="matrix(1.25,0,0,-1.25,378.53781,632.54488)"
       id="g24817">
      <path
         inkscape:connector-curvature="0"
         id="path24819"
         style="fill:#424b53;fill-opacity:1;fill-rule:nonzero;stroke:none"
         d="m 0,0 c 0,0.703 0.366,1.069 1.069,1.069 l 2.138,0 C 3.91,1.069 4.276,0.703 4.276,0 l 0,-12.94 c 0,-0.704 -0.366,-1.07 -1.069,-1.07 l -2.138,0 C 0.366,-14.01 0,-13.644 0,-12.94" />
    </g>
    <g
       transform="matrix(1.25,0,0,-1.25,385.79656,632.54488)"
       id="g24821">
      <path
         inkscape:connector-curvature="0"
         id="path24823"
         style="fill:#424b53;fill-opacity:1;fill-rule:nonzero;stroke:none"
         d="m 0,0 c 0,0.703 0.366,1.069 1.069,1.069 l 2.138,0 C 3.91,1.069 4.276,0.703 4.276,0 l 0,-1.069 C 5.26,0.197 6.555,1.35 8.721,1.35 c 1.969,0 3.46,-0.872 4.248,-2.391 1.322,1.547 2.897,2.391 4.95,2.391 3.179,0 5.092,-1.913 5.092,-5.542 l 0,-8.748 c 0,-0.704 -0.366,-1.07 -1.069,-1.07 l -2.138,0 c -0.703,0 -1.069,0.366 -1.069,1.07 l 0,7.341 c 0,2.026 -0.9,3.067 -2.503,3.067 -1.604,0 -2.588,-1.041 -2.588,-3.067 l 0,-7.341 c 0,-0.704 -0.366,-1.07 -1.07,-1.07 l -2.137,0 c -0.704,0 -1.069,0.366 -1.069,1.07 l 0,7.341 c 0,2.026 -0.9,3.067 -2.504,3.067 -1.604,0 -2.588,-1.041 -2.588,-3.067 l 0,-7.341 c 0,-0.704 -0.366,-1.07 -1.069,-1.07 l -2.138,0 C 0.366,-14.01 0,-13.644 0,-12.94" />
    </g>
    <g
       transform="matrix(1.25,0,0,-1.25,430.95032,640.66738)"
       id="g24825">
      <path
         inkscape:connector-curvature="0"
         id="path24827"
         style="fill:#424b53;fill-opacity:1;fill-rule:nonzero;stroke:none"
         d="M 0,0 0,0.056 C 0,2.56 -1.688,4.22 -3.685,4.22 -5.682,4.22 -7.342,2.56 -7.342,0.056 l 0,-0.056 c 0,-2.504 1.66,-4.163 3.657,-4.163 C -1.688,-4.163 0,-2.532 0,0 m -11.562,6.499 c 0,0.703 0.366,1.068 1.069,1.068 l 2.138,0 c 0.703,0 1.069,-0.365 1.069,-1.068 l 0,-1.098 c 1.041,1.407 2.476,2.448 4.698,2.448 3.516,0 6.864,-2.757 6.864,-7.793 L 4.276,0 c 0,-5.035 -3.291,-7.792 -6.864,-7.792 -2.279,0 -3.685,1.041 -4.698,2.25 l 0,-5.401 c 0,-0.703 -0.366,-1.069 -1.069,-1.069 l -2.138,0 c -0.703,0 -1.069,0.366 -1.069,1.069" />
    </g>
    <g
       transform="matrix(1.25,0,0,-1.25,437.35157,632.54488)"
       id="g24829">
      <path
         inkscape:connector-curvature="0"
         id="path24831"
         style="fill:#424b53;fill-opacity:1;fill-rule:nonzero;stroke:none"
         d="m 0,0 c 0,0.703 0.338,1.069 1.069,1.069 l 2.11,0 C 3.882,1.069 4.276,0.703 4.276,0 l 0,-1.125 C 4.726,0 6.104,1.013 7.989,1.294 8.692,1.406 9.058,0.956 9.058,0.253 l 0,-2.082 C 9.058,-2.898 8.664,-3.038 7.905,-3.151 5.176,-3.573 4.276,-5.908 4.276,-8.468 l 0,-4.501 c 0,-0.703 -0.394,-1.069 -1.097,-1.069 l -2.11,0 C 0.338,-14.038 0,-13.672 0,-12.969" />
    </g>
    <g
       transform="matrix(1.25,0,0,-1.25,461.42032,639.15613)"
       id="g24833">
      <path
         inkscape:connector-curvature="0"
         id="path24835"
         style="fill:#424b53;fill-opacity:1;fill-rule:nonzero;stroke:none"
         d="M 0,0 C -0.253,1.913 -1.378,3.207 -3.179,3.207 -4.951,3.207 -6.104,1.941 -6.442,0 L 0,0 Z m -10.634,-1.266 0,0.056 c 0,4.304 3.067,7.849 7.455,7.849 5.036,0 7.343,-3.91 7.343,-8.186 l 0,-0.085 c 0,-0.675 -0.422,-1.04 -1.097,-1.04 l -9.453,0 c 0.422,-1.941 1.773,-2.954 3.685,-2.954 1.125,0 1.998,0.281 2.898,0.9 0.282,0.197 0.535,0.309 0.788,0.309 0.225,0 0.478,-0.112 0.703,-0.309 l 0.9,-0.816 c 0.31,-0.253 0.479,-0.534 0.479,-0.815 0,-0.198 -0.113,-0.395 -0.282,-0.563 -1.35,-1.35 -3.179,-2.138 -5.542,-2.138 -4.529,0 -7.877,3.179 -7.877,7.792" />
    </g>
    <g
       transform="matrix(1.25,0,0,-1.25,467.13157,648.33363)"
       id="g24837">
      <path
         inkscape:connector-curvature="0"
         id="path24839"
         style="fill:#424b53;fill-opacity:1;fill-rule:nonzero;stroke:none"
         d="m 0,0 c -0.338,0.225 -0.506,0.535 -0.506,0.844 0,0.197 0.084,0.422 0.225,0.647 l 0.675,1.04 c 0.225,0.367 0.506,0.535 0.844,0.535 0.196,0 0.422,-0.084 0.647,-0.225 1.35,-0.787 2.7,-1.209 3.853,-1.209 1.238,0 1.801,0.45 1.801,1.125 l 0,0.056 c 0,0.816 -1.153,1.153 -2.56,1.575 C 4.81,4.445 4.613,4.501 4.417,4.557 2.307,5.176 -0.084,6.161 -0.084,9.086 l 0,0.057 c 0,3.066 2.475,4.782 5.513,4.782 1.576,0 3.263,-0.45 4.726,-1.21 0.394,-0.197 0.591,-0.478 0.591,-0.816 0,-0.196 -0.085,-0.422 -0.197,-0.647 L 9.93,10.155 C 9.705,9.761 9.424,9.564 9.086,9.564 c -0.168,0 -0.394,0.057 -0.618,0.169 -1.154,0.563 -2.251,0.9 -3.123,0.9 -1.041,0 -1.576,-0.449 -1.576,-1.04 l 0,-0.057 c 0,-0.844 1.435,-1.237 3.067,-1.8 2.109,-0.704 4.557,-1.716 4.557,-4.473 l 0,-0.056 C 11.393,-0.141 8.89,-1.66 5.626,-1.66 3.798,-1.66 1.8,-1.125 0,0" />
    </g>
    <g
       transform="matrix(1.25,0,0,-1.25,482.20657,648.33363)"
       id="g24841">
      <path
         inkscape:connector-curvature="0"
         id="path24843"
         style="fill:#424b53;fill-opacity:1;fill-rule:nonzero;stroke:none"
         d="m 0,0 c -0.338,0.225 -0.506,0.535 -0.506,0.844 0,0.197 0.084,0.422 0.225,0.647 l 0.675,1.04 C 0.619,2.898 0.9,3.066 1.238,3.066 1.435,3.066 1.66,2.982 1.885,2.841 3.235,2.054 4.586,1.632 5.739,1.632 c 1.238,0 1.8,0.45 1.8,1.125 l 0,0.056 c 0,0.816 -1.153,1.153 -2.56,1.575 C 4.81,4.445 4.614,4.501 4.417,4.557 2.307,5.176 -0.084,6.161 -0.084,9.086 l 0,0.057 c 0,3.066 2.475,4.782 5.513,4.782 1.576,0 3.263,-0.45 4.726,-1.21 0.394,-0.197 0.591,-0.478 0.591,-0.816 0,-0.196 -0.084,-0.422 -0.197,-0.647 L 9.93,10.155 C 9.705,9.761 9.424,9.564 9.087,9.564 c -0.169,0 -0.395,0.057 -0.619,0.169 -1.154,0.563 -2.251,0.9 -3.123,0.9 -1.041,0 -1.575,-0.449 -1.575,-1.04 l 0,-0.057 c 0,-0.844 1.434,-1.237 3.066,-1.8 2.11,-0.704 4.557,-1.716 4.557,-4.473 l 0,-0.056 C 11.393,-0.141 8.889,-1.66 5.626,-1.66 3.798,-1.66 1.801,-1.125 0,0" />
    </g>
  </g>
</svg>
